<?xml version="1.0"?>
<svg viewBox="39 39 122 122" height="200" width="200" xmlns="http://www.w3.org/2000/svg">
    <g>
        <path d="M131.981 68.02C125.168 49.813 113.293 39 100 39S74.832 49.813 68.019 68.02C49.814 74.832 39 86.708 39 100s10.814 25.168 29.019 31.98C74.833 150.187 86.708 161 100 161s25.167-10.813 31.981-29.02C150.186 125.168 161 113.292 161 100s-10.814-25.168-29.019-31.98zm-65.368 56.114C53.599 118.295 45.715 109.342 45.715 100s7.884-18.295 20.898-24.134c-1.982 7.39-3.092 15.551-3.092 24.134s1.11 16.744 3.092 24.134zM100 45.715c9.341 0 18.295 7.884 24.134 20.898-7.39-1.982-15.551-3.091-24.134-3.091s-16.743 1.109-24.134 3.091C81.705 53.599 90.659 45.715 100 45.715zm-27.524 81.811c-.129-.39-.263-.775-.387-1.171-2.452-7.839-3.847-16.819-3.847-26.355s1.395-18.516 3.847-26.355c.124-.396.258-.781.387-1.171.39-.129.775-.263 1.171-.387C81.485 69.635 90.464 68.24 100 68.24c9.536 0 18.515 1.394 26.353 3.847.396.124.781.258 1.171.387.129.39.263.775.387 1.171 2.452 7.839 3.847 16.818 3.847 26.355s-1.395 18.516-3.847 26.355c-.124.396-.258.781-.387 1.171-.39.129-.775.263-1.171.387-7.838 2.452-16.818 3.847-26.353 3.847-9.536 0-18.515-1.394-26.353-3.847-.396-.124-.781-.258-1.171-.387zM100 154.285c-9.341 0-18.295-7.884-24.133-20.898 7.39 1.982 15.551 3.091 24.133 3.091s16.743-1.109 24.133-3.091c-5.838 13.014-14.792 20.898-24.133 20.898zm33.387-30.151c1.982-7.391 3.092-15.551 3.092-24.134s-1.109-16.744-3.092-24.134c13.015 5.839 20.898 14.793 20.898 24.134s-7.884 18.295-20.898 24.134z" fill="#0E4828"></path>
        <path d="M86.017 89.257h-7.219a.911.911 0 0 0-.911.91v1.259c0 .502.408.91.911.91h6.131v5.438h-2.827a.911.911 0 0 0-.911.91v1.259c0 .502.408.91.911.91h2.827v6.695h-6.131a.911.911 0 0 0-.911.91v1.377c0 .502.408.91.911.91h7.14c.62 0 1.203-.254 1.707-.759.359-.383.542-.884.542-1.489v-7.927c0-.568-.168-.976-.355-1.253.287-.365.432-.821.432-1.363v-6.432c0-.627-.176-1.138-.544-1.54a2.343 2.343 0 0 0-1.703-.725z" fill="#E98866"></path>
        <path d="M98.24 97.755h-4.675v-5.418h3.528v2.157c0 .502.408.91.911.91h1.494a.911.911 0 0 0 .911-.91v-2.969c0-.63-.181-1.142-.548-1.536a2.354 2.354 0 0 0-1.738-.732h-5.684c-.679 0-1.287.26-1.746.738a1.8 1.8 0 0 0-.457.783c-.07.237-.105.496-.105.766v16.974c0 .313.038.578.115.811.085.257.235.505.444.736.226.249.494.43.8.54.265.096.569.142.929.142h5.822c.686 0 1.283-.235 1.745-.7.359-.383.542-.897.542-1.528v-8.496c0-.631-.182-1.145-.562-1.549a2.397 2.397 0 0 0-1.726-.719zm-6.143 1.734c-.054.052-.103.11-.145.172v-.574a1.075 1.075 0 0 0 .291.287c-.056.037-.111.08-.146.115zm5.094 8.04h-3.626v-6.577h3.626v6.577z" fill="#E98866"></path>
        <path d="M112.164 89.989a2.354 2.354 0 0 0-1.738-.732h-5.763c-.658 0-1.255.248-1.746.74-.359.383-.542.897-.542 1.528v17.072c0 .631.182 1.145.562 1.549.282.282.569.455.875.527.21.051.481.073.851.073h5.723c.638 0 1.226-.26 1.687-.738.227-.227.384-.488.466-.776.062-.219.094-.466.094-.733V91.604c0-.35-.015-.606-.039-.765a1.534 1.534 0 0 0-.43-.85zm-2.768 17.54h-3.666V92.337h3.666v15.192z" fill="#E98866"></path>
        <path d="M122.361 90.739c-.885-.984-2.059-1.482-3.49-1.482-1.447 0-2.61.488-3.455 1.448-.752.85-1.134 1.9-1.134 3.121 0 1.234.395 2.304 1.178 3.184.885.984 2.058 1.482 3.489 1.482 1.448 0 2.611-.488 3.456-1.448.752-.85 1.134-1.9 1.134-3.12.001-1.234-.395-2.305-1.178-3.185zm-2.159 4.345c-.311.345-.715.506-1.272.506-.578 0-.992-.164-1.298-.513-.287-.331-.426-.733-.426-1.232 0-.475.132-.845.415-1.162.31-.344.708-.505 1.25-.505.583 0 1.007.168 1.327.522.281.316.418.71.418 1.204 0 .481-.136.868-.414 1.18z" fill="#E98866"></path>
    </g>
</svg>