<?xml version="1.0"?>
<svg viewBox="65 29 70 142" height="200" width="200" xmlns="http://www.w3.org/2000/svg">
    <g>
        <path d="M108.655 128.344a3.71 3.71 0 0 0-.753-1.12c-.752-.783-1.746-1.196-2.873-1.196h-6.913v-8.239h5.149v3.018c0 .9.732 1.63 1.636 1.63h2.302c.904 0 1.636-.73 1.636-1.63v-4.558c0-1.029-.302-1.872-.885-2.491-.404-.439-.864-.753-1.361-.928-.437-.158-.931-.234-1.509-.234h-1.515v-2.474c0-.9-.732-1.63-1.636-1.63H99.51c-.904 0-1.636.73-1.636 1.63v2.474h-1.665c-1.434 0-2.31.605-2.793 1.113a3.625 3.625 0 0 0-1.024 2.539v11.47c0 1.026.301 1.868.935 2.542.75.746 1.726 1.139 2.822 1.139h7.117v9.234h-5.149v-2.775c0-.9-.732-1.63-1.636-1.63h-2.302c-.904 0-1.636.73-1.636 1.63v4.557c0 .499.061.928.191 1.318.144.428.386.83.715 1.192.372.412.835.712 1.379.892.444.149.926.22 1.472.22h1.574v2.534c0 .9.732 1.63 1.636 1.63h2.423c.904 0 1.636-.73 1.636-1.63v-2.534h1.604a4.46 4.46 0 0 0 1.475-.225 3.62 3.62 0 0 0 1.385-.893c.423-.45.928-1.249.928-2.504v-12.646a3.558 3.558 0 0 0-.306-1.425z" fill="#E98866"></path>
        <path d="M134.547 97.012l-17.625-30.418a3.383 3.383 0 0 0-2.927-1.684h-3.885c1.306-5.601 1.978-10.501 1.978-14.581C112.088 38.368 106.778 29 100 29s-12.088 9.368-12.088 21.329c0 4.552 1.036 9.634 2.453 14.581h-4.36a3.382 3.382 0 0 0-2.927 1.684L65.453 97.012A3.356 3.356 0 0 0 65 98.696v68.936A3.374 3.374 0 0 0 68.38 171h63.239a3.374 3.374 0 0 0 3.38-3.368V98.696a3.345 3.345 0 0 0-.452-1.684zM100 33.042c3.799 0 8.032 7.1 8.032 17.287 0 3.996-.704 8.895-2.086 14.581H94.585c-1.496-4.993-2.617-10.127-2.617-14.581.001-10.187 4.233-17.287 8.032-17.287zm.731 48.906c-.162-.428-.334-.879-.512-1.34 1.975.116 3.55 1.738 3.55 3.734a3.768 3.768 0 0 1-3.77 3.757 3.768 3.768 0 0 1-3.769-3.757c0-.614.163-1.186.426-1.698l.278.727a2.027 2.027 0 0 0 2.613 1.179 2.016 2.016 0 0 0 1.184-2.602zm27.508 82.315H71.761V99.599l16.196-27.952h4.562A230.151 230.151 0 0 0 95 78.35a7.774 7.774 0 0 0-2.826 5.993c0 4.3 3.51 7.799 7.826 7.799 4.315 0 7.826-3.499 7.826-7.799 0-4.3-3.511-7.799-7.826-7.799-.445 0-.879.046-1.304.117a246.714 246.714 0 0 1-1.872-5.015h15.219l16.196 27.952v64.665z" fill="#0E4828"></path>
    </g>
</svg>