<?xml version="1.0"?>
<svg viewBox="43.5 62 113 76" height="200" width="200" xmlns="http://www.w3.org/2000/svg">
    <g>
        <path d="M127.288 76.941c-7.538 0-13.671 6.103-13.671 13.606s6.132 13.606 13.671 13.606c7.538 0 13.672-6.104 13.672-13.606s-6.134-13.606-13.672-13.606z" fill="#E98866"></path>
        <path d="M153.128 62H46.873a3.365 3.365 0 0 0-3.373 3.357v69.287a3.365 3.365 0 0 0 3.373 3.357h106.255a3.364 3.364 0 0 0 3.372-3.357V65.357A3.365 3.365 0 0 0 153.128 62zm-93.993 69.287l19.406-35.208 15.225 27.658c.319.58.904.966 1.564 1.035a2.035 2.035 0 0 0 1.746-.69l9.932-11.495 13.642 18.7H59.135zm90.62 0h-24.148a2.062 2.062 0 0 0-.177-.303l-16.65-22.824a2.029 2.029 0 0 0-3.173-.13l-9.696 11.221-15.594-28.33c-.354-.645-1.035-1.046-1.775-1.046s-1.419.401-1.775 1.046l-22.201 40.278c-.016.029-.023.059-.038.088h-4.285V68.713h99.51v62.574z" fill="#0E4828"></path>
    </g>
</svg>